<mxfile host="65bd71144e">
    <diagram id="qSGStTwh8_wicevLnicR" name="Page-1">
        <mxGraphModel dx="2001" dy="2323" grid="1" gridSize="10" guides="1" tooltips="1" connect="1" arrows="1" fold="1" page="1" pageScale="1" pageWidth="850" pageHeight="1100" math="0" shadow="0">
            <root>
                <mxCell id="0"/>
                <mxCell id="1" parent="0"/>
                <mxCell id="2" value="THIS IS A DIV&lt;br&gt;" style="whiteSpace=wrap;html=1;aspect=fixed;" vertex="1" parent="1">
                    <mxGeometry x="260" y="160" width="350" height="350" as="geometry"/>
                </mxCell>
                <mxCell id="3" value="BUTTON" style="rounded=0;whiteSpace=wrap;html=1;" vertex="1" parent="1">
                    <mxGeometry x="375" y="450" width="120" height="60" as="geometry"/>
                </mxCell>
                <mxCell id="4" value="" style="endArrow=classic;html=1;" edge="1" parent="1">
                    <mxGeometry width="50" height="50" relative="1" as="geometry">
                        <mxPoint x="270" y="610" as="sourcePoint"/>
                        <mxPoint x="370" y="510" as="targetPoint"/>
                    </mxGeometry>
                </mxCell>
                <mxCell id="5" value="DIV.APPEND(BUTTON)" style="rounded=0;whiteSpace=wrap;html=1;" vertex="1" parent="1">
                    <mxGeometry x="190" y="600" width="150" height="60" as="geometry"/>
                </mxCell>
                <mxCell id="6" value="THIS IS A DIV&lt;br&gt;" style="whiteSpace=wrap;html=1;aspect=fixed;" vertex="1" parent="1">
                    <mxGeometry x="680" y="160" width="350" height="350" as="geometry"/>
                </mxCell>
                <mxCell id="7" value="BUTTON" style="rounded=0;whiteSpace=wrap;html=1;" vertex="1" parent="1">
                    <mxGeometry x="690" y="160" width="120" height="60" as="geometry"/>
                </mxCell>
                <mxCell id="8" value="" style="endArrow=classic;html=1;" edge="1" parent="1" source="9" target="7">
                    <mxGeometry width="50" height="50" relative="1" as="geometry">
                        <mxPoint x="690" y="610" as="sourcePoint"/>
                        <mxPoint x="790" y="510" as="targetPoint"/>
                    </mxGeometry>
                </mxCell>
                <mxCell id="9" value="DIV.PREPEND(BUTTON)" style="rounded=0;whiteSpace=wrap;html=1;" vertex="1" parent="1">
                    <mxGeometry x="540" y="20" width="150" height="60" as="geometry"/>
                </mxCell>
                <mxCell id="10" value="THIS IS A DIV&lt;br&gt;" style="whiteSpace=wrap;html=1;aspect=fixed;" vertex="1" parent="1">
                    <mxGeometry x="1100" y="160" width="350" height="350" as="geometry"/>
                </mxCell>
                <mxCell id="11" value="BUTTON" style="rounded=0;whiteSpace=wrap;html=1;" vertex="1" parent="1">
                    <mxGeometry x="1110" y="100" width="120" height="60" as="geometry"/>
                </mxCell>
                <mxCell id="12" value="" style="endArrow=classic;html=1;" edge="1" parent="1" target="11">
                    <mxGeometry width="50" height="50" relative="1" as="geometry">
                        <mxPoint x="1110" y="-10" as="sourcePoint"/>
                        <mxPoint x="1250" y="30" as="targetPoint"/>
                    </mxGeometry>
                </mxCell>
                <mxCell id="13" value="DIV.BEFORE(BUTTON)" style="rounded=0;whiteSpace=wrap;html=1;" vertex="1" parent="1">
                    <mxGeometry x="1080" y="-70" width="150" height="60" as="geometry"/>
                </mxCell>
                <mxCell id="15" value="THIS IS A DIV&lt;br&gt;" style="whiteSpace=wrap;html=1;aspect=fixed;" vertex="1" parent="1">
                    <mxGeometry x="1550" y="160" width="350" height="350" as="geometry"/>
                </mxCell>
                <mxCell id="17" value="" style="endArrow=classic;html=1;startArrow=none;" edge="1" parent="1" source="16">
                    <mxGeometry width="50" height="50" relative="1" as="geometry">
                        <mxPoint x="1560" y="610" as="sourcePoint"/>
                        <mxPoint x="1660" y="510" as="targetPoint"/>
                    </mxGeometry>
                </mxCell>
                <mxCell id="18" value="DIV.AFTER(BUTTON)" style="rounded=0;whiteSpace=wrap;html=1;" vertex="1" parent="1">
                    <mxGeometry x="1430" y="710" width="150" height="60" as="geometry"/>
                </mxCell>
                <mxCell id="19" value="" style="endArrow=none;html=1;" edge="1" parent="1" source="18" target="16">
                    <mxGeometry width="50" height="50" relative="1" as="geometry">
                        <mxPoint x="1560" y="610" as="sourcePoint"/>
                        <mxPoint x="1660" y="510" as="targetPoint"/>
                    </mxGeometry>
                </mxCell>
                <mxCell id="16" value="BUTTON" style="rounded=0;whiteSpace=wrap;html=1;" vertex="1" parent="1">
                    <mxGeometry x="1570" y="510" width="120" height="60" as="geometry"/>
                </mxCell>
            </root>
        </mxGraphModel>
    </diagram>
</mxfile>